<mxfile host="65bd71144e">
    <diagram id="6yuMKP93k7jTuPyEQmRw" name="Page-1">
        <mxGraphModel dx="925" dy="1137" grid="1" gridSize="10" guides="1" tooltips="1" connect="1" arrows="1" fold="1" page="1" pageScale="1" pageWidth="827" pageHeight="1169" math="0" shadow="0">
            <root>
                <mxCell id="0"/>
                <mxCell id="1" parent="0"/>
                <mxCell id="2" value="" style="rounded=0;orthogonalLoop=1;jettySize=auto;html=1;" parent="1" source="6" target="11" edge="1">
                    <mxGeometry relative="1" as="geometry"/>
                </mxCell>
                <mxCell id="4" value="" style="rounded=0;orthogonalLoop=1;jettySize=auto;html=1;" parent="1" source="6" target="16" edge="1">
                    <mxGeometry relative="1" as="geometry"/>
                </mxCell>
                <mxCell id="6" value="P1 Q1 0 0" style="ellipse;whiteSpace=wrap;html=1;" parent="1" vertex="1">
                    <mxGeometry x="360" y="160" width="80" height="40" as="geometry"/>
                </mxCell>
                <mxCell id="7" value="" style="rounded=0;orthogonalLoop=1;jettySize=auto;html=1;" parent="1" source="11" target="21" edge="1">
                    <mxGeometry relative="1" as="geometry"/>
                </mxCell>
                <mxCell id="9" value="" style="rounded=0;orthogonalLoop=1;jettySize=auto;html=1;" parent="1" source="11" target="42" edge="1">
                    <mxGeometry relative="1" as="geometry"/>
                </mxCell>
                <mxCell id="11" value="P2 Q1 1 0" style="ellipse;whiteSpace=wrap;html=1;" parent="1" vertex="1">
                    <mxGeometry x="240" y="200" width="80" height="40" as="geometry"/>
                </mxCell>
                <mxCell id="12" style="rounded=0;orthogonalLoop=1;jettySize=auto;html=1;" parent="1" source="16" target="21" edge="1">
                    <mxGeometry relative="1" as="geometry"/>
                </mxCell>
                <mxCell id="59" value="" style="edgeStyle=none;html=1;" parent="1" source="16" target="58" edge="1">
                    <mxGeometry relative="1" as="geometry"/>
                </mxCell>
                <mxCell id="16" value="P1 Q2 0 1" style="ellipse;whiteSpace=wrap;html=1;" parent="1" vertex="1">
                    <mxGeometry x="480" y="200" width="80" height="40" as="geometry"/>
                </mxCell>
                <mxCell id="63" value="" style="edgeStyle=none;html=1;" parent="1" source="21" target="62" edge="1">
                    <mxGeometry relative="1" as="geometry"/>
                </mxCell>
                <mxCell id="21" value="P2 Q2 1 1" style="ellipse;whiteSpace=wrap;html=1;" parent="1" vertex="1">
                    <mxGeometry x="360" y="240" width="80" height="40" as="geometry"/>
                </mxCell>
                <mxCell id="38" value="" style="rounded=0;orthogonalLoop=1;jettySize=auto;html=1;" parent="1" source="42" target="43" edge="1">
                    <mxGeometry relative="1" as="geometry"/>
                </mxCell>
                <mxCell id="40" value="" style="rounded=0;orthogonalLoop=1;jettySize=auto;html=1;" parent="1" source="42" target="47" edge="1">
                    <mxGeometry relative="1" as="geometry"/>
                </mxCell>
                <mxCell id="42" value="P3 Q1 1 0" style="ellipse;whiteSpace=wrap;html=1;" parent="1" vertex="1">
                    <mxGeometry x="120" y="240" width="80" height="40" as="geometry"/>
                </mxCell>
                <mxCell id="67" value="" style="edgeStyle=none;html=1;" parent="1" source="43" target="66" edge="1">
                    <mxGeometry relative="1" as="geometry"/>
                </mxCell>
                <mxCell id="43" value="P4 Q1 1 0" style="ellipse;whiteSpace=wrap;html=1;" parent="1" vertex="1">
                    <mxGeometry y="280" width="80" height="40" as="geometry"/>
                </mxCell>
                <mxCell id="70" value="" style="edgeStyle=none;html=1;" parent="1" source="47" target="66" edge="1">
                    <mxGeometry relative="1" as="geometry">
                        <mxPoint x="219.6641432130125" y="420.5924992853438" as="targetPoint"/>
                    </mxGeometry>
                </mxCell>
                <mxCell id="74" value="" style="edgeStyle=none;html=1;" parent="1" source="47" target="73" edge="1">
                    <mxGeometry relative="1" as="geometry"/>
                </mxCell>
                <mxCell id="47" value="P3 Q2 1 1" style="ellipse;whiteSpace=wrap;html=1;" parent="1" vertex="1">
                    <mxGeometry x="240" y="280" width="80" height="40" as="geometry"/>
                </mxCell>
                <mxCell id="61" value="" style="edgeStyle=none;html=1;" parent="1" source="58" target="60" edge="1">
                    <mxGeometry relative="1" as="geometry"/>
                </mxCell>
                <mxCell id="58" value="P1 Q4 0 1" style="ellipse;whiteSpace=wrap;html=1;" parent="1" vertex="1">
                    <mxGeometry x="600" y="240" width="80" height="40" as="geometry"/>
                </mxCell>
                <mxCell id="60" value="P2 Q4 1 1" style="ellipse;whiteSpace=wrap;html=1;" parent="1" vertex="1">
                    <mxGeometry x="720" y="280" width="80" height="40" as="geometry"/>
                </mxCell>
                <mxCell id="62" value="P2 Q3 1 1" style="ellipse;whiteSpace=wrap;html=1;" parent="1" vertex="1">
                    <mxGeometry x="480" y="280" width="80" height="40" as="geometry"/>
                </mxCell>
                <mxCell id="72" value="" style="edgeStyle=none;html=1;" parent="1" source="66" target="71" edge="1">
                    <mxGeometry relative="1" as="geometry"/>
                </mxCell>
                <mxCell id="66" value="P4 Q2 1 1" style="ellipse;whiteSpace=wrap;html=1;" parent="1" vertex="1">
                    <mxGeometry x="120" y="320" width="80" height="40" as="geometry"/>
                </mxCell>
                <mxCell id="77" value="" style="edgeStyle=none;html=1;" parent="1" source="71" target="76" edge="1">
                    <mxGeometry relative="1" as="geometry"/>
                </mxCell>
                <mxCell id="71" value="P4 Q2 1 1" style="ellipse;whiteSpace=wrap;html=1;" parent="1" vertex="1">
                    <mxGeometry x="240" y="360" width="80" height="40" as="geometry"/>
                </mxCell>
                <mxCell id="75" style="edgeStyle=none;html=1;" parent="1" source="73" target="71" edge="1">
                    <mxGeometry relative="1" as="geometry"/>
                </mxCell>
                <mxCell id="73" value="P3 Q3 1 1" style="ellipse;whiteSpace=wrap;html=1;" parent="1" vertex="1">
                    <mxGeometry x="360" y="320" width="80" height="40" as="geometry"/>
                </mxCell>
                <mxCell id="76" value="P1 Q3 0 1" style="ellipse;whiteSpace=wrap;html=1;" parent="1" vertex="1">
                    <mxGeometry x="120" y="400" width="80" height="40" as="geometry"/>
                </mxCell>
            </root>
        </mxGraphModel>
    </diagram>
</mxfile>